<mxfile host="app.diagrams.net" modified="2020-08-06T08:23:16.508Z" agent="5.0 (Windows NT 10.0; Win64; x64) AppleWebKit/537.36 (KHTML, like Gecko) Chrome/84.0.4147.105 Safari/537.36" etag="5r2saAJGY_2LB6jWREsa" version="13.6.0" type="github">
  <diagram id="prtHgNgQTEPvFCAcTncT" name="Page-1">
    <mxGraphModel dx="1422" dy="794" grid="1" gridSize="10" guides="1" tooltips="1" connect="1" arrows="1" fold="1" page="1" pageScale="1" pageWidth="827" pageHeight="1169" math="0" shadow="0">
      <root>
        <mxCell id="0" />
        <mxCell id="1" parent="0" />
        <mxCell id="2_j0QSpFck6MEXXhUKV5-11" value="" style="edgeStyle=orthogonalEdgeStyle;rounded=0;orthogonalLoop=1;jettySize=auto;html=1;" edge="1" parent="1" source="2_j0QSpFck6MEXXhUKV5-1" target="2_j0QSpFck6MEXXhUKV5-10">
          <mxGeometry relative="1" as="geometry" />
        </mxCell>
        <mxCell id="2_j0QSpFck6MEXXhUKV5-1" value="Заказ по меню" style="rounded=0;whiteSpace=wrap;html=1;" vertex="1" parent="1">
          <mxGeometry x="40" y="40" width="120" height="60" as="geometry" />
        </mxCell>
        <mxCell id="2_j0QSpFck6MEXXhUKV5-13" value="" style="edgeStyle=orthogonalEdgeStyle;rounded=0;orthogonalLoop=1;jettySize=auto;html=1;" edge="1" parent="1" source="2_j0QSpFck6MEXXhUKV5-10" target="2_j0QSpFck6MEXXhUKV5-12">
          <mxGeometry relative="1" as="geometry" />
        </mxCell>
        <mxCell id="2_j0QSpFck6MEXXhUKV5-10" value="Подтверждение&lt;br&gt;повором\барменом" style="rhombus;whiteSpace=wrap;html=1;rounded=0;" vertex="1" parent="1">
          <mxGeometry x="200" y="5" width="150" height="130" as="geometry" />
        </mxCell>
        <mxCell id="2_j0QSpFck6MEXXhUKV5-15" value="" style="edgeStyle=orthogonalEdgeStyle;rounded=0;orthogonalLoop=1;jettySize=auto;html=1;" edge="1" parent="1" source="2_j0QSpFck6MEXXhUKV5-12" target="2_j0QSpFck6MEXXhUKV5-14">
          <mxGeometry relative="1" as="geometry" />
        </mxCell>
        <mxCell id="2_j0QSpFck6MEXXhUKV5-12" value="формирование" style="whiteSpace=wrap;html=1;rounded=0;" vertex="1" parent="1">
          <mxGeometry x="380" y="40" width="120" height="60" as="geometry" />
        </mxCell>
        <mxCell id="2_j0QSpFck6MEXXhUKV5-17" value="" style="edgeStyle=orthogonalEdgeStyle;rounded=0;orthogonalLoop=1;jettySize=auto;html=1;" edge="1" parent="1" source="2_j0QSpFck6MEXXhUKV5-14" target="2_j0QSpFck6MEXXhUKV5-16">
          <mxGeometry relative="1" as="geometry" />
        </mxCell>
        <mxCell id="2_j0QSpFck6MEXXhUKV5-14" value="доставка" style="whiteSpace=wrap;html=1;rounded=0;" vertex="1" parent="1">
          <mxGeometry x="520" y="40" width="120" height="60" as="geometry" />
        </mxCell>
        <mxCell id="2_j0QSpFck6MEXXhUKV5-16" value="оплата" style="whiteSpace=wrap;html=1;rounded=0;" vertex="1" parent="1">
          <mxGeometry x="670" y="40" width="120" height="60" as="geometry" />
        </mxCell>
      </root>
    </mxGraphModel>
  </diagram>
</mxfile>
